<mxfile host="app.diagrams.net" modified="2023-03-13T18:30:58.787Z" agent="5.0 (Macintosh; Intel Mac OS X 10_15_7) AppleWebKit/605.1.15 (KHTML, like Gecko) Version/14.1.2 Safari/605.1.15" etag="WMJl1NSYUlk94XoW-1J-" version="21.0.6" type="github">
  <diagram name="Página-1" id="pJLwS6r93-qyTwOKSYF7">
    <mxGraphModel dx="545" dy="1492" grid="1" gridSize="10" guides="1" tooltips="1" connect="1" arrows="1" fold="1" page="1" pageScale="1" pageWidth="827" pageHeight="1169" math="0" shadow="0">
      <root>
        <mxCell id="0" />
        <mxCell id="1" parent="0" />
        <mxCell id="-N-F_lVAU-4jPlRG66jh-63" value="&lt;span style=&quot;white-space: pre;&quot;&gt;Id&lt;br/&gt;Descrição&lt;br&gt;Sigla&lt;br&gt;&lt;/span&gt;" style="text;strokeColor=none;fillColor=none;html=1;whiteSpace=wrap;verticalAlign=middle;overflow=hidden;fontSize=10;align=left;horizontal=1;spacingTop=4;" vertex="1" parent="1">
          <mxGeometry x="418.5" y="425" width="90" height="89" as="geometry" />
        </mxCell>
        <mxCell id="-N-F_lVAU-4jPlRG66jh-3" value="ID&lt;br&gt;AviãoId&lt;br&gt;&lt;span style=&quot;white-space: pre;&quot;&gt;CidadeOrigem&lt;br&gt;CidadeDestino&lt;br&gt;DataVoo&lt;br&gt;HoraVoo&lt;br&gt;&lt;/span&gt;" style="text;strokeColor=none;fillColor=none;html=1;whiteSpace=wrap;verticalAlign=middle;overflow=hidden;fontSize=10;align=left;" vertex="1" parent="1">
          <mxGeometry x="80" y="121" width="80" height="89" as="geometry" />
        </mxCell>
        <mxCell id="D5NF-Z73VtHgu1xgqP5V-6" value="Voo" style="whiteSpace=wrap;html=1;align=center;fillColor=#dae8fc;strokeColor=#6c8ebf;" parent="1" vertex="1">
          <mxGeometry x="40" y="240" width="100" height="40" as="geometry" />
        </mxCell>
        <mxCell id="D5NF-Z73VtHgu1xgqP5V-7" value="Assento" style="whiteSpace=wrap;html=1;align=center;fillStyle=solid;fillColor=#dae8fc;strokeColor=#6c8ebf;" parent="1" vertex="1">
          <mxGeometry x="360" y="240" width="103.5" height="40" as="geometry" />
        </mxCell>
        <mxCell id="D5NF-Z73VtHgu1xgqP5V-8" value="Avião" style="whiteSpace=wrap;html=1;align=center;fillColor=#dae8fc;strokeColor=#6c8ebf;" parent="1" vertex="1">
          <mxGeometry x="200" y="240" width="100" height="40" as="geometry" />
        </mxCell>
        <mxCell id="D5NF-Z73VtHgu1xgqP5V-9" value="Passageiro" style="whiteSpace=wrap;html=1;align=center;fillColor=#dae8fc;strokeColor=#6c8ebf;" parent="1" vertex="1">
          <mxGeometry x="520" y="240" width="100" height="40" as="geometry" />
        </mxCell>
        <mxCell id="D5NF-Z73VtHgu1xgqP5V-10" value="Dependente" style="whiteSpace=wrap;html=1;align=center;fillColor=#dae8fc;strokeColor=#6c8ebf;" parent="1" vertex="1">
          <mxGeometry x="680" y="240" width="100" height="40" as="geometry" />
        </mxCell>
        <mxCell id="D5NF-Z73VtHgu1xgqP5V-11" value="Reserva" style="whiteSpace=wrap;html=1;align=center;" parent="1" vertex="1">
          <mxGeometry x="40" y="400" width="100" height="40" as="geometry" />
        </mxCell>
        <mxCell id="D5NF-Z73VtHgu1xgqP5V-12" value="Cidade" style="whiteSpace=wrap;html=1;align=center;fillColor=#dae8fc;strokeColor=#6c8ebf;" parent="1" vertex="1">
          <mxGeometry x="200" y="400" width="100" height="40" as="geometry" />
        </mxCell>
        <mxCell id="D5NF-Z73VtHgu1xgqP5V-13" value="Estado" style="whiteSpace=wrap;html=1;align=center;fillColor=#dae8fc;strokeColor=#6c8ebf;" parent="1" vertex="1">
          <mxGeometry x="364" y="400" width="100" height="40" as="geometry" />
        </mxCell>
        <mxCell id="D5NF-Z73VtHgu1xgqP5V-14" value="Bairro" style="whiteSpace=wrap;html=1;align=center;" parent="1" vertex="1">
          <mxGeometry x="520" y="400" width="100" height="40" as="geometry" />
        </mxCell>
        <mxCell id="D5NF-Z73VtHgu1xgqP5V-15" value="Cep" style="whiteSpace=wrap;html=1;align=center;" parent="1" vertex="1">
          <mxGeometry x="680" y="400" width="100" height="40" as="geometry" />
        </mxCell>
        <mxCell id="D5NF-Z73VtHgu1xgqP5V-16" value="Rua" style="whiteSpace=wrap;html=1;align=center;" parent="1" vertex="1">
          <mxGeometry x="40" y="565" width="100" height="40" as="geometry" />
        </mxCell>
        <mxCell id="D5NF-Z73VtHgu1xgqP5V-18" value="" style="endArrow=none;html=1;rounded=0;exitX=0;exitY=0;exitDx=0;exitDy=0;" parent="1" edge="1" source="D5NF-Z73VtHgu1xgqP5V-6">
          <mxGeometry width="50" height="50" relative="1" as="geometry">
            <mxPoint x="39.81" y="237" as="sourcePoint" />
            <mxPoint x="39.81" y="137" as="targetPoint" />
          </mxGeometry>
        </mxCell>
        <mxCell id="-N-F_lVAU-4jPlRG66jh-5" value="" style="endArrow=none;html=1;rounded=0;startArrow=none;" edge="1" parent="1" source="-N-F_lVAU-4jPlRG66jh-4">
          <mxGeometry width="50" height="50" relative="1" as="geometry">
            <mxPoint x="40" y="136.8" as="sourcePoint" />
            <mxPoint x="80" y="136.8" as="targetPoint" />
          </mxGeometry>
        </mxCell>
        <mxCell id="-N-F_lVAU-4jPlRG66jh-8" value="" style="endArrow=none;html=1;rounded=0;" edge="1" parent="1">
          <mxGeometry width="50" height="50" relative="1" as="geometry">
            <mxPoint x="40" y="150" as="sourcePoint" />
            <mxPoint x="80" y="150" as="targetPoint" />
          </mxGeometry>
        </mxCell>
        <mxCell id="-N-F_lVAU-4jPlRG66jh-9" value="" style="endArrow=none;html=1;rounded=0;" edge="1" parent="1">
          <mxGeometry width="50" height="50" relative="1" as="geometry">
            <mxPoint x="40" y="162" as="sourcePoint" />
            <mxPoint x="80" y="162" as="targetPoint" />
          </mxGeometry>
        </mxCell>
        <mxCell id="-N-F_lVAU-4jPlRG66jh-10" value="" style="endArrow=none;html=1;rounded=0;" edge="1" parent="1">
          <mxGeometry width="50" height="50" relative="1" as="geometry">
            <mxPoint x="40" y="185" as="sourcePoint" />
            <mxPoint x="80" y="185" as="targetPoint" />
          </mxGeometry>
        </mxCell>
        <mxCell id="-N-F_lVAU-4jPlRG66jh-11" value="" style="endArrow=none;html=1;rounded=0;" edge="1" parent="1">
          <mxGeometry width="50" height="50" relative="1" as="geometry">
            <mxPoint x="40" y="173" as="sourcePoint" />
            <mxPoint x="80" y="173" as="targetPoint" />
          </mxGeometry>
        </mxCell>
        <mxCell id="-N-F_lVAU-4jPlRG66jh-12" value="" style="endArrow=none;html=1;rounded=0;" edge="1" parent="1">
          <mxGeometry width="50" height="50" relative="1" as="geometry">
            <mxPoint x="40" y="197" as="sourcePoint" />
            <mxPoint x="80" y="197" as="targetPoint" />
          </mxGeometry>
        </mxCell>
        <mxCell id="-N-F_lVAU-4jPlRG66jh-14" value="" style="endArrow=none;html=1;rounded=0;" edge="1" parent="1" target="-N-F_lVAU-4jPlRG66jh-4">
          <mxGeometry width="50" height="50" relative="1" as="geometry">
            <mxPoint x="40" y="136.8" as="sourcePoint" />
            <mxPoint x="80" y="136.8" as="targetPoint" />
          </mxGeometry>
        </mxCell>
        <mxCell id="-N-F_lVAU-4jPlRG66jh-4" value="" style="ellipse;whiteSpace=wrap;html=1;aspect=fixed;fillStyle=solid;fillColor=#0008FF;" vertex="1" parent="1">
          <mxGeometry x="70" y="132" width="10" height="10" as="geometry" />
        </mxCell>
        <mxCell id="-N-F_lVAU-4jPlRG66jh-21" value="" style="endArrow=none;html=1;rounded=0;" edge="1" parent="1">
          <mxGeometry width="50" height="50" relative="1" as="geometry">
            <mxPoint x="210" y="219.8" as="sourcePoint" />
            <mxPoint x="240" y="220" as="targetPoint" />
            <Array as="points">
              <mxPoint x="230" y="220" />
            </Array>
          </mxGeometry>
        </mxCell>
        <mxCell id="-N-F_lVAU-4jPlRG66jh-22" value="" style="ellipse;whiteSpace=wrap;html=1;aspect=fixed;fillStyle=solid;fillColor=#0008FF;" vertex="1" parent="1">
          <mxGeometry x="230" y="215" width="10" height="10" as="geometry" />
        </mxCell>
        <mxCell id="-N-F_lVAU-4jPlRG66jh-23" value="" style="endArrow=none;html=1;rounded=0;" edge="1" parent="1">
          <mxGeometry width="50" height="50" relative="1" as="geometry">
            <mxPoint x="210" y="240" as="sourcePoint" />
            <mxPoint x="210" y="220" as="targetPoint" />
          </mxGeometry>
        </mxCell>
        <mxCell id="-N-F_lVAU-4jPlRG66jh-24" value="ID&lt;span style=&quot;white-space: pre;&quot;&gt;&lt;br&gt;&lt;/span&gt;" style="text;strokeColor=none;fillColor=none;html=1;whiteSpace=wrap;verticalAlign=middle;overflow=hidden;fontSize=10;align=left;" vertex="1" parent="1">
          <mxGeometry x="239.5" y="174.5" width="80" height="89" as="geometry" />
        </mxCell>
        <mxCell id="-N-F_lVAU-4jPlRG66jh-25" value="ID&lt;br&gt;&lt;span style=&quot;white-space: pre;&quot;&gt;Quantidade&lt;br&gt;&lt;/span&gt;" style="text;strokeColor=none;fillColor=none;html=1;whiteSpace=wrap;verticalAlign=middle;overflow=hidden;fontSize=10;align=left;" vertex="1" parent="1">
          <mxGeometry x="394.5" y="175.5" width="80" height="89" as="geometry" />
        </mxCell>
        <mxCell id="-N-F_lVAU-4jPlRG66jh-27" value="" style="endArrow=none;html=1;rounded=0;" edge="1" parent="1">
          <mxGeometry width="50" height="50" relative="1" as="geometry">
            <mxPoint x="360" y="228" as="sourcePoint" />
            <mxPoint x="390" y="228" as="targetPoint" />
          </mxGeometry>
        </mxCell>
        <mxCell id="-N-F_lVAU-4jPlRG66jh-32" value="" style="endArrow=none;html=1;rounded=0;startArrow=none;" edge="1" parent="1" source="-N-F_lVAU-4jPlRG66jh-33">
          <mxGeometry width="50" height="50" relative="1" as="geometry">
            <mxPoint x="360" y="215" as="sourcePoint" />
            <mxPoint x="395" y="215" as="targetPoint" />
          </mxGeometry>
        </mxCell>
        <mxCell id="-N-F_lVAU-4jPlRG66jh-34" value="" style="endArrow=none;html=1;rounded=0;exitX=0;exitY=0;exitDx=0;exitDy=0;" edge="1" parent="1" source="D5NF-Z73VtHgu1xgqP5V-7">
          <mxGeometry width="50" height="50" relative="1" as="geometry">
            <mxPoint x="363.5" y="240" as="sourcePoint" />
            <mxPoint x="360" y="210" as="targetPoint" />
            <Array as="points">
              <mxPoint x="360" y="230" />
            </Array>
          </mxGeometry>
        </mxCell>
        <mxCell id="-N-F_lVAU-4jPlRG66jh-44" value="" style="endArrow=none;html=1;rounded=0;startArrow=none;" edge="1" source="-N-F_lVAU-4jPlRG66jh-50" parent="1">
          <mxGeometry width="50" height="50" relative="1" as="geometry">
            <mxPoint x="520" y="136.8" as="sourcePoint" />
            <mxPoint x="560" y="136.8" as="targetPoint" />
          </mxGeometry>
        </mxCell>
        <mxCell id="-N-F_lVAU-4jPlRG66jh-45" value="" style="endArrow=none;html=1;rounded=0;" edge="1" parent="1">
          <mxGeometry width="50" height="50" relative="1" as="geometry">
            <mxPoint x="520" y="150" as="sourcePoint" />
            <mxPoint x="560" y="150" as="targetPoint" />
          </mxGeometry>
        </mxCell>
        <mxCell id="-N-F_lVAU-4jPlRG66jh-46" value="" style="endArrow=none;html=1;rounded=0;" edge="1" parent="1">
          <mxGeometry width="50" height="50" relative="1" as="geometry">
            <mxPoint x="520" y="162" as="sourcePoint" />
            <mxPoint x="560" y="162" as="targetPoint" />
          </mxGeometry>
        </mxCell>
        <mxCell id="-N-F_lVAU-4jPlRG66jh-47" value="" style="endArrow=none;html=1;rounded=0;" edge="1" parent="1">
          <mxGeometry width="50" height="50" relative="1" as="geometry">
            <mxPoint x="520" y="185" as="sourcePoint" />
            <mxPoint x="560" y="185" as="targetPoint" />
          </mxGeometry>
        </mxCell>
        <mxCell id="-N-F_lVAU-4jPlRG66jh-48" value="" style="endArrow=none;html=1;rounded=0;" edge="1" parent="1">
          <mxGeometry width="50" height="50" relative="1" as="geometry">
            <mxPoint x="520" y="173" as="sourcePoint" />
            <mxPoint x="560" y="173" as="targetPoint" />
          </mxGeometry>
        </mxCell>
        <mxCell id="-N-F_lVAU-4jPlRG66jh-49" value="" style="endArrow=none;html=1;rounded=0;" edge="1" target="-N-F_lVAU-4jPlRG66jh-50" parent="1">
          <mxGeometry width="50" height="50" relative="1" as="geometry">
            <mxPoint x="520" y="136.8" as="sourcePoint" />
            <mxPoint x="560" y="136.8" as="targetPoint" />
          </mxGeometry>
        </mxCell>
        <mxCell id="-N-F_lVAU-4jPlRG66jh-50" value="" style="ellipse;whiteSpace=wrap;html=1;aspect=fixed;fillStyle=solid;fillColor=#0008FF;" vertex="1" parent="1">
          <mxGeometry x="550" y="132" width="10" height="10" as="geometry" />
        </mxCell>
        <mxCell id="-N-F_lVAU-4jPlRG66jh-52" value="" style="endArrow=none;html=1;rounded=0;" edge="1" parent="1">
          <mxGeometry width="50" height="50" relative="1" as="geometry">
            <mxPoint x="520" y="240" as="sourcePoint" />
            <mxPoint x="520" y="136" as="targetPoint" />
          </mxGeometry>
        </mxCell>
        <mxCell id="-N-F_lVAU-4jPlRG66jh-54" value="&lt;span style=&quot;white-space: pre;&quot;&gt;Id&lt;br/&gt;CPF&lt;/span&gt;&lt;br&gt;&lt;span style=&quot;white-space: pre;&quot;&gt;Nome&lt;/span&gt;&lt;br&gt;&lt;span style=&quot;white-space: pre;&quot;&gt;Telefone&lt;/span&gt;&lt;br&gt;&lt;span style=&quot;white-space: pre;&quot;&gt;Email&lt;/span&gt;&lt;br&gt;&lt;span style=&quot;white-space: pre;&quot;&gt;Endereço&lt;/span&gt;" style="text;strokeColor=none;fillColor=none;html=1;whiteSpace=wrap;verticalAlign=middle;overflow=hidden;fontSize=10;align=left;" vertex="1" parent="1">
          <mxGeometry x="560" y="120" width="90" height="89" as="geometry" />
        </mxCell>
        <mxCell id="-N-F_lVAU-4jPlRG66jh-55" value="" style="endArrow=none;html=1;rounded=0;startArrow=none;" edge="1" source="-N-F_lVAU-4jPlRG66jh-61" parent="1">
          <mxGeometry width="50" height="50" relative="1" as="geometry">
            <mxPoint x="378.5" y="461.8" as="sourcePoint" />
            <mxPoint x="418.5" y="461.8" as="targetPoint" />
          </mxGeometry>
        </mxCell>
        <mxCell id="-N-F_lVAU-4jPlRG66jh-56" value="" style="endArrow=none;html=1;rounded=0;" edge="1" parent="1">
          <mxGeometry width="50" height="50" relative="1" as="geometry">
            <mxPoint x="378.5" y="475" as="sourcePoint" />
            <mxPoint x="418.5" y="475" as="targetPoint" />
            <Array as="points" />
          </mxGeometry>
        </mxCell>
        <mxCell id="-N-F_lVAU-4jPlRG66jh-60" value="" style="endArrow=none;html=1;rounded=0;" edge="1" target="-N-F_lVAU-4jPlRG66jh-61" parent="1">
          <mxGeometry width="50" height="50" relative="1" as="geometry">
            <mxPoint x="378.5" y="461.8" as="sourcePoint" />
            <mxPoint x="418.5" y="461.8" as="targetPoint" />
          </mxGeometry>
        </mxCell>
        <mxCell id="-N-F_lVAU-4jPlRG66jh-61" value="" style="ellipse;whiteSpace=wrap;html=1;aspect=fixed;fillStyle=solid;fillColor=#0008FF;" vertex="1" parent="1">
          <mxGeometry x="408.5" y="457" width="10" height="10" as="geometry" />
        </mxCell>
        <mxCell id="-N-F_lVAU-4jPlRG66jh-62" value="" style="endArrow=none;html=1;rounded=0;entryX=0.144;entryY=1.025;entryDx=0;entryDy=0;entryPerimeter=0;" edge="1" parent="1">
          <mxGeometry width="50" height="50" relative="1" as="geometry">
            <mxPoint x="378" y="490" as="sourcePoint" />
            <mxPoint x="378.4" y="440" as="targetPoint" />
          </mxGeometry>
        </mxCell>
        <mxCell id="-N-F_lVAU-4jPlRG66jh-66" value="Endereço" style="whiteSpace=wrap;html=1;align=center;fillColor=#dae8fc;strokeColor=#6c8ebf;" vertex="1" parent="1">
          <mxGeometry x="680" y="115" width="100" height="40" as="geometry" />
        </mxCell>
        <mxCell id="-N-F_lVAU-4jPlRG66jh-67" value="" style="endArrow=none;html=1;rounded=0;startArrow=none;" edge="1" source="-N-F_lVAU-4jPlRG66jh-73" parent="1">
          <mxGeometry width="50" height="50" relative="1" as="geometry">
            <mxPoint x="680" y="11.800000000000011" as="sourcePoint" />
            <mxPoint x="720" y="11.800000000000011" as="targetPoint" />
          </mxGeometry>
        </mxCell>
        <mxCell id="-N-F_lVAU-4jPlRG66jh-68" value="" style="endArrow=none;html=1;rounded=0;" edge="1" parent="1">
          <mxGeometry width="50" height="50" relative="1" as="geometry">
            <mxPoint x="680" y="23" as="sourcePoint" />
            <mxPoint x="720" y="23" as="targetPoint" />
          </mxGeometry>
        </mxCell>
        <mxCell id="-N-F_lVAU-4jPlRG66jh-69" value="" style="endArrow=none;html=1;rounded=0;" edge="1" parent="1">
          <mxGeometry width="50" height="50" relative="1" as="geometry">
            <mxPoint x="680" y="34" as="sourcePoint" />
            <mxPoint x="720" y="34" as="targetPoint" />
          </mxGeometry>
        </mxCell>
        <mxCell id="-N-F_lVAU-4jPlRG66jh-70" value="" style="endArrow=none;html=1;rounded=0;" edge="1" parent="1">
          <mxGeometry width="50" height="50" relative="1" as="geometry">
            <mxPoint x="680" y="58" as="sourcePoint" />
            <mxPoint x="720" y="58" as="targetPoint" />
          </mxGeometry>
        </mxCell>
        <mxCell id="-N-F_lVAU-4jPlRG66jh-71" value="" style="endArrow=none;html=1;rounded=0;" edge="1" parent="1">
          <mxGeometry width="50" height="50" relative="1" as="geometry">
            <mxPoint x="680" y="46" as="sourcePoint" />
            <mxPoint x="720" y="46" as="targetPoint" />
          </mxGeometry>
        </mxCell>
        <mxCell id="-N-F_lVAU-4jPlRG66jh-72" value="" style="endArrow=none;html=1;rounded=0;" edge="1" parent="1">
          <mxGeometry width="50" height="50" relative="1" as="geometry">
            <mxPoint x="680" y="8.800000000000011" as="sourcePoint" />
            <mxPoint x="710" y="9" as="targetPoint" />
          </mxGeometry>
        </mxCell>
        <mxCell id="-N-F_lVAU-4jPlRG66jh-73" value="" style="ellipse;whiteSpace=wrap;html=1;aspect=fixed;fillStyle=solid;fillColor=#0008FF;" vertex="1" parent="1">
          <mxGeometry x="710" y="4" width="10" height="10" as="geometry" />
        </mxCell>
        <mxCell id="-N-F_lVAU-4jPlRG66jh-74" value="" style="endArrow=none;html=1;rounded=0;" edge="1" parent="1">
          <mxGeometry width="50" height="50" relative="1" as="geometry">
            <mxPoint x="680" y="115" as="sourcePoint" />
            <mxPoint x="680" y="10" as="targetPoint" />
          </mxGeometry>
        </mxCell>
        <mxCell id="-N-F_lVAU-4jPlRG66jh-75" value="&lt;span style=&quot;white-space: pre;&quot;&gt;Id&lt;br&gt;Rua&lt;br&gt;CEP&lt;br&gt;Número&lt;/span&gt;&lt;br&gt;&lt;span style=&quot;white-space: pre;&quot;&gt;Complemento&lt;/span&gt;&lt;br&gt;&lt;span style=&quot;white-space: pre;&quot;&gt;Bairro&lt;/span&gt;&lt;span style=&quot;white-space: pre;&quot;&gt;&lt;br&gt;Cidade&lt;br&gt;Estado&lt;br&gt;&lt;/span&gt;" style="text;strokeColor=none;fillColor=none;html=1;whiteSpace=wrap;verticalAlign=middle;overflow=hidden;fontSize=10;align=left;" vertex="1" parent="1">
          <mxGeometry x="720" y="-10" width="90" height="118" as="geometry" />
        </mxCell>
        <mxCell id="-N-F_lVAU-4jPlRG66jh-76" value="" style="endArrow=none;html=1;rounded=0;" edge="1" parent="1">
          <mxGeometry width="50" height="50" relative="1" as="geometry">
            <mxPoint x="680" y="82" as="sourcePoint" />
            <mxPoint x="720" y="82" as="targetPoint" />
          </mxGeometry>
        </mxCell>
        <mxCell id="-N-F_lVAU-4jPlRG66jh-77" value="" style="endArrow=none;html=1;rounded=0;" edge="1" parent="1">
          <mxGeometry width="50" height="50" relative="1" as="geometry">
            <mxPoint x="680" y="70" as="sourcePoint" />
            <mxPoint x="720" y="70" as="targetPoint" />
          </mxGeometry>
        </mxCell>
        <mxCell id="-N-F_lVAU-4jPlRG66jh-78" value="Id&lt;br&gt;Nome&lt;br&gt;&lt;span style=&quot;white-space: pre;&quot;&gt;DataNascimento&lt;br&gt;&lt;/span&gt;" style="text;strokeColor=none;fillColor=none;html=1;whiteSpace=wrap;verticalAlign=middle;overflow=hidden;fontSize=10;align=left;" vertex="1" parent="1">
          <mxGeometry x="720" y="170.5" width="80" height="89" as="geometry" />
        </mxCell>
        <mxCell id="-N-F_lVAU-4jPlRG66jh-79" value="" style="endArrow=none;html=1;rounded=0;" edge="1" parent="1">
          <mxGeometry width="50" height="50" relative="1" as="geometry">
            <mxPoint x="680" y="204.8" as="sourcePoint" />
            <mxPoint x="710.5" y="205" as="targetPoint" />
          </mxGeometry>
        </mxCell>
        <mxCell id="-N-F_lVAU-4jPlRG66jh-80" value="" style="endArrow=none;html=1;rounded=0;" edge="1" parent="1">
          <mxGeometry width="50" height="50" relative="1" as="geometry">
            <mxPoint x="680" y="218" as="sourcePoint" />
            <mxPoint x="720" y="218" as="targetPoint" />
          </mxGeometry>
        </mxCell>
        <mxCell id="-N-F_lVAU-4jPlRG66jh-81" value="" style="endArrow=none;html=1;rounded=0;" edge="1" parent="1">
          <mxGeometry width="50" height="50" relative="1" as="geometry">
            <mxPoint x="680" y="280" as="sourcePoint" />
            <mxPoint x="680" y="204" as="targetPoint" />
          </mxGeometry>
        </mxCell>
        <mxCell id="-N-F_lVAU-4jPlRG66jh-82" value="" style="ellipse;whiteSpace=wrap;html=1;aspect=fixed;fillStyle=solid;fillColor=#0008FF;" vertex="1" parent="1">
          <mxGeometry x="710" y="200" width="10" height="10" as="geometry" />
        </mxCell>
        <mxCell id="-N-F_lVAU-4jPlRG66jh-83" value="" style="endArrow=none;html=1;rounded=0;startArrow=none;" edge="1" source="-N-F_lVAU-4jPlRG66jh-86" parent="1">
          <mxGeometry width="50" height="50" relative="1" as="geometry">
            <mxPoint x="200.5" y="459.3" as="sourcePoint" />
            <mxPoint x="240.5" y="459.3" as="targetPoint" />
          </mxGeometry>
        </mxCell>
        <mxCell id="-N-F_lVAU-4jPlRG66jh-84" value="" style="endArrow=none;html=1;rounded=0;" edge="1" parent="1">
          <mxGeometry width="50" height="50" relative="1" as="geometry">
            <mxPoint x="200.5" y="472.5" as="sourcePoint" />
            <mxPoint x="240.5" y="472.5" as="targetPoint" />
            <Array as="points" />
          </mxGeometry>
        </mxCell>
        <mxCell id="-N-F_lVAU-4jPlRG66jh-85" value="" style="endArrow=none;html=1;rounded=0;" edge="1" target="-N-F_lVAU-4jPlRG66jh-86" parent="1">
          <mxGeometry width="50" height="50" relative="1" as="geometry">
            <mxPoint x="200.5" y="459.3" as="sourcePoint" />
            <mxPoint x="240.5" y="459.3" as="targetPoint" />
          </mxGeometry>
        </mxCell>
        <mxCell id="-N-F_lVAU-4jPlRG66jh-86" value="" style="ellipse;whiteSpace=wrap;html=1;aspect=fixed;fillStyle=solid;fillColor=#0008FF;" vertex="1" parent="1">
          <mxGeometry x="230.5" y="454.5" width="10" height="10" as="geometry" />
        </mxCell>
        <mxCell id="-N-F_lVAU-4jPlRG66jh-87" value="&lt;span style=&quot;white-space: pre;&quot;&gt;Id&lt;br/&gt;Descrição&lt;br&gt;&lt;/span&gt;" style="text;strokeColor=none;fillColor=none;html=1;whiteSpace=wrap;verticalAlign=middle;overflow=hidden;fontSize=10;align=left;horizontal=1;spacingTop=4;" vertex="1" parent="1">
          <mxGeometry x="240.5" y="417.5" width="90" height="89" as="geometry" />
        </mxCell>
        <mxCell id="-N-F_lVAU-4jPlRG66jh-88" value="" style="endArrow=none;html=1;rounded=0;entryX=0.144;entryY=1.025;entryDx=0;entryDy=0;entryPerimeter=0;" edge="1" parent="1">
          <mxGeometry width="50" height="50" relative="1" as="geometry">
            <mxPoint x="200.5" y="473.5" as="sourcePoint" />
            <mxPoint x="200" y="438.5" as="targetPoint" />
          </mxGeometry>
        </mxCell>
        <mxCell id="-N-F_lVAU-4jPlRG66jh-92" value="" style="endArrow=none;html=1;rounded=0;startArrow=none;" edge="1" parent="1" source="-N-F_lVAU-4jPlRG66jh-97">
          <mxGeometry width="50" height="50" relative="1" as="geometry">
            <mxPoint x="40" y="380" as="sourcePoint" />
            <mxPoint x="70" y="380.2" as="targetPoint" />
            <Array as="points">
              <mxPoint x="60" y="380.2" />
            </Array>
          </mxGeometry>
        </mxCell>
        <mxCell id="-N-F_lVAU-4jPlRG66jh-96" value="" style="endArrow=none;html=1;rounded=0;" edge="1" parent="1">
          <mxGeometry width="50" height="50" relative="1" as="geometry">
            <mxPoint x="40" y="400" as="sourcePoint" />
            <mxPoint x="40" y="380" as="targetPoint" />
          </mxGeometry>
        </mxCell>
        <mxCell id="-N-F_lVAU-4jPlRG66jh-98" value="" style="endArrow=none;html=1;rounded=0;" edge="1" parent="1" target="-N-F_lVAU-4jPlRG66jh-97">
          <mxGeometry width="50" height="50" relative="1" as="geometry">
            <mxPoint x="40" y="380" as="sourcePoint" />
            <mxPoint x="70" y="380.2" as="targetPoint" />
            <Array as="points" />
          </mxGeometry>
        </mxCell>
        <mxCell id="-N-F_lVAU-4jPlRG66jh-97" value="" style="ellipse;whiteSpace=wrap;html=1;aspect=fixed;fillStyle=solid;fillColor=#0008FF;" vertex="1" parent="1">
          <mxGeometry x="60" y="375" width="10" height="10" as="geometry" />
        </mxCell>
        <mxCell id="-N-F_lVAU-4jPlRG66jh-99" value="&lt;span style=&quot;white-space: pre;&quot;&gt;Id&lt;br&gt;&lt;/span&gt;" style="text;strokeColor=none;fillColor=none;html=1;whiteSpace=wrap;verticalAlign=middle;overflow=hidden;fontSize=10;align=left;horizontal=1;spacingTop=4;" vertex="1" parent="1">
          <mxGeometry x="70" y="331.5" width="90" height="89" as="geometry" />
        </mxCell>
        <mxCell id="-N-F_lVAU-4jPlRG66jh-100" value="" style="endArrow=none;html=1;rounded=0;" edge="1" parent="1" target="-N-F_lVAU-4jPlRG66jh-33">
          <mxGeometry width="50" height="50" relative="1" as="geometry">
            <mxPoint x="360" y="215" as="sourcePoint" />
            <mxPoint x="395" y="215" as="targetPoint" />
          </mxGeometry>
        </mxCell>
        <mxCell id="-N-F_lVAU-4jPlRG66jh-33" value="" style="ellipse;whiteSpace=wrap;html=1;aspect=fixed;fillStyle=solid;fillColor=#0008FF;" vertex="1" parent="1">
          <mxGeometry x="384.5" y="210" width="10" height="10" as="geometry" />
        </mxCell>
        <mxCell id="-N-F_lVAU-4jPlRG66jh-101" value="" style="endArrow=none;html=1;rounded=0;" edge="1" parent="1">
          <mxGeometry width="50" height="50" relative="1" as="geometry">
            <mxPoint x="680" y="94" as="sourcePoint" />
            <mxPoint x="720" y="94" as="targetPoint" />
          </mxGeometry>
        </mxCell>
        <mxCell id="-N-F_lVAU-4jPlRG66jh-103" value="" style="endArrow=none;html=1;rounded=0;" edge="1" parent="1">
          <mxGeometry width="50" height="50" relative="1" as="geometry">
            <mxPoint x="520" y="197" as="sourcePoint" />
            <mxPoint x="560" y="197" as="targetPoint" />
          </mxGeometry>
        </mxCell>
        <mxCell id="-N-F_lVAU-4jPlRG66jh-104" value="" style="endArrow=none;html=1;rounded=0;" edge="1" parent="1">
          <mxGeometry width="50" height="50" relative="1" as="geometry">
            <mxPoint x="680" y="228" as="sourcePoint" />
            <mxPoint x="720" y="228" as="targetPoint" />
          </mxGeometry>
        </mxCell>
        <mxCell id="-N-F_lVAU-4jPlRG66jh-106" value="" style="endArrow=none;html=1;rounded=0;" edge="1" parent="1">
          <mxGeometry width="50" height="50" relative="1" as="geometry">
            <mxPoint x="378.5" y="486" as="sourcePoint" />
            <mxPoint x="418.5" y="486" as="targetPoint" />
            <Array as="points" />
          </mxGeometry>
        </mxCell>
      </root>
    </mxGraphModel>
  </diagram>
</mxfile>
